SplineFontDB: 3.0
FontName: zepto8
FullName: ZEPTO-8
FamilyName: zepto8
Weight: Book
Copyright: 
Version: 1.0
ItalicAngle: 0
UnderlinePosition: -200
UnderlineWidth: 200
Ascent: 1000
Descent: 0
InvalidEm: 0
sfntRevision: 0x00010000
LayerCount: 2
Layer: 0 1 "Back" 1
Layer: 1 1 "Fore" 0
XUID: [1021 982 998645423 14247482]
StyleMap: 0x0040
FSType: 4
OS2Version: 2
OS2_WeightWidthSlopeOnly: 0
OS2_UseTypoMetrics: 0
CreationTime: 1478729775
ModificationTime: 1548333977
PfmFamily: 81
TTFWeight: 400
TTFWidth: 5
LineGap: 0
VLineGap: 0
Panose: 0 0 4 0 0 0 0 0 0 0
OS2TypoAscent: 1000
OS2TypoAOffset: 0
OS2TypoDescent: 200
OS2TypoDOffset: 0
OS2TypoLinegap: 0
OS2WinAscent: 1000
OS2WinAOffset: 0
OS2WinDescent: 200
OS2WinDOffset: 0
HheadAscent: 1000
HheadAOffset: 0
HheadDescent: -200
HheadDOffset: 0
OS2SubXSize: 400
OS2SubYSize: 400
OS2SubXOff: 0
OS2SubYOff: 0
OS2SupXSize: 400
OS2SupYSize: 400
OS2SupXOff: 0
OS2SupYOff: 400
OS2StrikeYSize: 40
OS2StrikeYPos: 160
OS2CapHeight: 1000
OS2XHeight: 800
OS2Vendor: 'FSTR'
OS2CodePages: 00000011.00000000
OS2UnicodeRanges: 00000003.00000000.00000000.00000000
MarkAttachClasses: 1
DEI: 91125
ShortTable: maxp 16
  1
  0
  125
  72
  18
  0
  0
  2
  0
  0
  0
  0
  0
  0
  0
  0
EndShort
LangName: 1033 "" "" "Regular" "FontForge 2.0 : ZEPTO-8 : 24-1-2019"
GaspTable: 1 65535 2 0
Encoding: UnicodeBmp
UnicodeInterp: none
NameList: AGL For New Fonts
DisplaySize: -48
AntiAlias: 1
FitToEm: 0
WinInfo: 64 16 6
BeginPrivate: 0
EndPrivate
BeginChars: 65539 125

StartChar: .notdef
Encoding: 65536 -1 0
Width: 600
VWidth: 1200
Flags: W
LayerCount: 2
Fore
SplineSet
400 114 m 1,0,-1
 400 240 l 1,1,-1
 373 240 l 1,2,-1
 373 114 l 1,3,-1
 400 114 l 1,0,-1
627 263 m 1,4,-1
 627 389 l 1,5,-1
 373 389 l 1,6,-1
 373 263 l 1,7,-1
 627 263 l 1,4,-1
400 410 m 1,8,-1
 400 538 l 1,9,-1
 373 538 l 1,10,-1
 373 410 l 1,11,-1
 400 410 l 1,8,-1
627 559 m 1,12,-1
 627 686 l 1,13,-1
 400 686 l 2,14,15
 447 686 447 686 411 648 c 0,16,17
 373 610 373 610 373 559 c 1,18,-1
 627 559 l 1,12,-1
0 0 m 1,19,-1
 0 800 l 1,20,-1
 800 800 l 1,21,-1
 800 0 l 1,22,-1
 0 0 l 1,19,-1
EndSplineSet
EndChar

StartChar: exclam
Encoding: 33 33 4
Width: 800
VWidth: 1200
GlyphClass: 2
Flags: W
LayerCount: 2
Fore
SplineSet
200 0 m 1,0,-1
 200 200 l 1,1,-1
 400 200 l 1,2,-1
 400 0 l 1,3,-1
 200 0 l 1,0,-1
200 400 m 1,4,-1
 200 1000 l 1,5,-1
 400 1000 l 1,6,-1
 400 400 l 1,7,-1
 200 400 l 1,4,-1
EndSplineSet
EndChar

StartChar: quotedbl
Encoding: 34 34 5
Width: 800
VWidth: 1200
GlyphClass: 2
Flags: W
LayerCount: 2
Fore
SplineSet
0 600 m 1,0,-1
 0 1000 l 1,1,-1
 200 1000 l 1,2,-1
 200 600 l 1,3,-1
 0 600 l 1,0,-1
400 600 m 1,4,-1
 400 1000 l 1,5,-1
 600 1000 l 1,6,-1
 600 600 l 1,7,-1
 400 600 l 1,4,-1
EndSplineSet
EndChar

StartChar: numbersign
Encoding: 35 35 6
Width: 800
VWidth: 1200
GlyphClass: 2
Flags: W
LayerCount: 2
Fore
SplineSet
400 400 m 1,0,-1
 400 600 l 1,1,-1
 200 600 l 1,2,-1
 200 400 l 1,3,-1
 400 400 l 1,0,-1
0 0 m 1,4,-1
 0 1000 l 1,5,-1
 200 1000 l 1,6,-1
 200 800 l 1,7,-1
 400 800 l 1,8,-1
 400 1000 l 1,9,-1
 600 1000 l 1,10,-1
 600 0 l 1,11,-1
 400 0 l 1,12,-1
 400 200 l 1,13,-1
 200 200 l 1,14,-1
 200 0 l 1,15,-1
 0 0 l 1,4,-1
EndSplineSet
EndChar

StartChar: dollar
Encoding: 36 36 7
Width: 800
VWidth: 1200
GlyphClass: 2
Flags: W
LayerCount: 2
Fore
SplineSet
200 0 m 1,0,-1
 200 200 l 1,1,-1
 0 200 l 1,2,-1
 0 400 l 1,3,-1
 200 400 l 1,4,-1
 200 600 l 1,5,-1
 0 600 l 1,6,-1
 0 1000 l 1,7,-1
 600 1000 l 1,8,-1
 600 800 l 1,9,-1
 400 800 l 1,10,-1
 400 600 l 1,11,-1
 600 600 l 1,12,-1
 600 200 l 1,13,-1
 400 200 l 1,14,-1
 400 0 l 1,15,-1
 200 0 l 1,0,-1
EndSplineSet
EndChar

StartChar: percent
Encoding: 37 37 8
Width: 800
VWidth: 1200
GlyphClass: 2
Flags: W
LayerCount: 2
Fore
SplineSet
400 0 m 1,0,-1
 400 200 l 1,1,-1
 600 200 l 1,2,-1
 600 0 l 1,3,-1
 400 0 l 1,0,-1
0 0 m 1,4,-1
 0 400 l 1,5,-1
 200 400 l 1,6,-1
 200 0 l 1,7,-1
 0 0 l 1,4,-1
200 400 m 1,8,-1
 200 600 l 1,9,-1
 400 600 l 1,10,-1
 400 400 l 1,11,-1
 200 400 l 1,8,-1
0 800 m 1,12,-1
 0 1000 l 1,13,-1
 200 1000 l 1,14,-1
 200 800 l 1,15,-1
 0 800 l 1,12,-1
400 600 m 1,16,-1
 400 1000 l 1,17,-1
 600 1000 l 1,18,-1
 600 600 l 1,19,-1
 400 600 l 1,16,-1
EndSplineSet
EndChar

StartChar: ampersand
Encoding: 38 38 9
Width: 800
VWidth: 1200
GlyphClass: 2
Flags: W
LayerCount: 2
Fore
SplineSet
400 200 m 1,0,-1
 400 400 l 1,1,-1
 200 400 l 1,2,-1
 200 200 l 1,3,-1
 400 200 l 1,0,-1
0 0 m 1,4,-1
 0 1000 l 1,5,-1
 400 1000 l 1,6,-1
 400 600 l 1,7,-1
 600 600 l 1,8,-1
 600 0 l 1,9,-1
 0 0 l 1,4,-1
EndSplineSet
EndChar

StartChar: quotesingle
Encoding: 39 39 10
Width: 800
VWidth: 1200
GlyphClass: 2
Flags: W
LayerCount: 2
Fore
SplineSet
0 600 m 1,0,-1
 0 800 l 1,1,-1
 200 800 l 1,2,-1
 200 600 l 1,3,-1
 0 600 l 1,0,-1
200 800 m 1,4,-1
 200 1000 l 1,5,-1
 400 1000 l 1,6,-1
 400 800 l 1,7,-1
 200 800 l 1,4,-1
EndSplineSet
EndChar

StartChar: parenleft
Encoding: 40 40 11
Width: 800
VWidth: 1200
GlyphClass: 2
Flags: W
LayerCount: 2
Fore
SplineSet
0 200 m 1,0,-1
 0 800 l 1,1,-1
 200 800 l 1,2,-1
 200 200 l 1,3,-1
 400 200 l 1,4,-1
 400 0 l 1,5,-1
 200 0 l 1,6,-1
 200 200 l 1,7,-1
 0 200 l 1,0,-1
200 800 m 1,8,-1
 200 1000 l 1,9,-1
 400 1000 l 1,10,-1
 400 800 l 1,11,-1
 200 800 l 1,8,-1
EndSplineSet
EndChar

StartChar: parenright
Encoding: 41 41 12
Width: 800
VWidth: 1200
GlyphClass: 2
Flags: W
LayerCount: 2
Fore
SplineSet
200 0 m 1,0,-1
 200 200 l 1,1,-1
 400 200 l 1,2,-1
 400 0 l 1,3,-1
 200 0 l 1,0,-1
400 200 m 1,4,-1
 400 800 l 1,5,-1
 600 800 l 1,6,-1
 600 200 l 1,7,-1
 400 200 l 1,4,-1
200 800 m 1,8,-1
 200 1000 l 1,9,-1
 400 1000 l 1,10,-1
 400 800 l 1,11,-1
 200 800 l 1,8,-1
EndSplineSet
EndChar

StartChar: asterisk
Encoding: 42 42 13
Width: 800
VWidth: 1200
GlyphClass: 2
Flags: W
LayerCount: 2
Fore
SplineSet
0 0 m 1,0,-1
 0 200 l 1,1,-1
 200 200 l 1,2,-1
 200 0 l 1,3,-1
 0 0 l 1,0,-1
400 0 m 1,4,-1
 400 200 l 1,5,-1
 600 200 l 1,6,-1
 600 0 l 1,7,-1
 400 0 l 1,4,-1
200 200 m 1,8,-1
 200 400 l 1,9,-1
 0 400 l 1,10,-1
 0 600 l 1,11,-1
 200 600 l 1,12,-1
 200 800 l 1,13,-1
 400 800 l 1,14,-1
 400 600 l 1,15,-1
 600 600 l 1,16,-1
 600 400 l 1,17,-1
 400 400 l 1,18,-1
 400 200 l 1,19,-1
 200 200 l 1,8,-1
0 800 m 1,20,-1
 0 1000 l 1,21,-1
 200 1000 l 1,22,-1
 200 800 l 1,23,-1
 0 800 l 1,20,-1
400 800 m 1,24,-1
 400 1000 l 1,25,-1
 600 1000 l 1,26,-1
 600 800 l 1,27,-1
 400 800 l 1,24,-1
EndSplineSet
EndChar

StartChar: plus
Encoding: 43 43 14
Width: 800
VWidth: 1200
GlyphClass: 2
Flags: W
LayerCount: 2
Fore
SplineSet
200 200 m 1,0,-1
 200 400 l 1,1,-1
 0 400 l 1,2,-1
 0 600 l 1,3,-1
 200 600 l 1,4,-1
 200 800 l 1,5,-1
 400 800 l 1,6,-1
 400 600 l 1,7,-1
 600 600 l 1,8,-1
 600 400 l 1,9,-1
 400 400 l 1,10,-1
 400 200 l 1,11,-1
 200 200 l 1,0,-1
EndSplineSet
EndChar

StartChar: comma
Encoding: 44 44 15
Width: 800
VWidth: 1200
GlyphClass: 2
Flags: W
LayerCount: 2
Fore
SplineSet
0 0 m 1,0,-1
 0 200 l 1,1,-1
 200 200 l 1,2,-1
 200 0 l 1,3,-1
 0 0 l 1,0,-1
200 200 m 1,4,-1
 200 400 l 1,5,-1
 400 400 l 1,6,-1
 400 200 l 1,7,-1
 200 200 l 1,4,-1
EndSplineSet
EndChar

StartChar: hyphen
Encoding: 45 45 16
Width: 800
VWidth: 1200
GlyphClass: 2
Flags: W
LayerCount: 2
Fore
SplineSet
0 400 m 1,0,-1
 0 600 l 1,1,-1
 600 600 l 1,2,-1
 600 400 l 1,3,-1
 0 400 l 1,0,-1
EndSplineSet
EndChar

StartChar: period
Encoding: 46 46 17
Width: 800
VWidth: 1200
GlyphClass: 2
Flags: W
LayerCount: 2
Fore
SplineSet
200 0 m 1,0,-1
 200 200 l 1,1,-1
 400 200 l 1,2,-1
 400 0 l 1,3,-1
 200 0 l 1,0,-1
EndSplineSet
EndChar

StartChar: slash
Encoding: 47 47 18
Width: 800
VWidth: 1200
GlyphClass: 2
Flags: W
LayerCount: 2
Fore
SplineSet
0 0 m 1,0,-1
 0 200 l 1,1,-1
 200 200 l 1,2,-1
 200 0 l 1,3,-1
 0 0 l 1,0,-1
200 200 m 1,4,-1
 200 800 l 1,5,-1
 400 800 l 1,6,-1
 400 200 l 1,7,-1
 200 200 l 1,4,-1
400 800 m 1,8,-1
 400 1000 l 1,9,-1
 600 1000 l 1,10,-1
 600 800 l 1,11,-1
 400 800 l 1,8,-1
EndSplineSet
EndChar

StartChar: zero
Encoding: 48 48 19
Width: 800
VWidth: 1200
GlyphClass: 2
Flags: W
LayerCount: 2
Fore
SplineSet
400 200 m 1,0,-1
 400 800 l 1,1,-1
 200 800 l 1,2,-1
 200 200 l 1,3,-1
 400 200 l 1,0,-1
0 0 m 1,4,-1
 0 1000 l 1,5,-1
 600 1000 l 1,6,-1
 600 0 l 1,7,-1
 0 0 l 1,4,-1
EndSplineSet
EndChar

StartChar: one
Encoding: 49 49 20
Width: 800
VWidth: 1200
GlyphClass: 2
Flags: W
LayerCount: 2
Fore
SplineSet
0 0 m 1,0,-1
 0 200 l 1,1,-1
 200 200 l 1,2,-1
 200 800 l 1,3,-1
 0 800 l 1,4,-1
 0 1000 l 1,5,-1
 400 1000 l 1,6,-1
 400 200 l 1,7,-1
 600 200 l 1,8,-1
 600 0 l 1,9,-1
 0 0 l 1,0,-1
EndSplineSet
EndChar

StartChar: two
Encoding: 50 50 21
Width: 800
VWidth: 1200
GlyphClass: 2
Flags: W
LayerCount: 2
Fore
SplineSet
0 0 m 1,0,-1
 0 600 l 1,1,-1
 400 600 l 1,2,-1
 400 800 l 1,3,-1
 0 800 l 1,4,-1
 0 1000 l 1,5,-1
 600 1000 l 1,6,-1
 600 400 l 1,7,-1
 200 400 l 1,8,-1
 200 200 l 1,9,-1
 600 200 l 1,10,-1
 600 0 l 1,11,-1
 0 0 l 1,0,-1
EndSplineSet
EndChar

StartChar: three
Encoding: 51 51 22
Width: 800
VWidth: 1200
GlyphClass: 2
Flags: W
LayerCount: 2
Fore
SplineSet
0 0 m 1,0,-1
 0 200 l 1,1,-1
 400 200 l 1,2,-1
 400 400 l 1,3,-1
 200 400 l 1,4,-1
 200 600 l 1,5,-1
 400 600 l 1,6,-1
 400 800 l 1,7,-1
 0 800 l 1,8,-1
 0 1000 l 1,9,-1
 600 1000 l 1,10,-1
 600 0 l 1,11,-1
 0 0 l 1,0,-1
EndSplineSet
EndChar

StartChar: four
Encoding: 52 52 23
Width: 800
VWidth: 1200
GlyphClass: 2
Flags: W
LayerCount: 2
Fore
SplineSet
400 0 m 1,0,-1
 400 400 l 1,1,-1
 0 400 l 1,2,-1
 0 1000 l 1,3,-1
 200 1000 l 1,4,-1
 200 600 l 1,5,-1
 400 600 l 1,6,-1
 400 1000 l 1,7,-1
 600 1000 l 1,8,-1
 600 0 l 1,9,-1
 400 0 l 1,0,-1
EndSplineSet
EndChar

StartChar: five
Encoding: 53 53 24
Width: 800
VWidth: 1200
GlyphClass: 2
Flags: W
LayerCount: 2
Fore
SplineSet
0 0 m 1,0,-1
 0 200 l 1,1,-1
 400 200 l 1,2,-1
 400 400 l 1,3,-1
 0 400 l 1,4,-1
 0 1000 l 1,5,-1
 600 1000 l 1,6,-1
 600 800 l 1,7,-1
 200 800 l 1,8,-1
 200 600 l 1,9,-1
 600 600 l 1,10,-1
 600 0 l 1,11,-1
 0 0 l 1,0,-1
EndSplineSet
EndChar

StartChar: six
Encoding: 54 54 25
Width: 800
VWidth: 1200
GlyphClass: 2
Flags: W
LayerCount: 2
Fore
SplineSet
400 200 m 1,0,-1
 400 400 l 1,1,-1
 200 400 l 1,2,-1
 200 200 l 1,3,-1
 400 200 l 1,0,-1
0 0 m 1,4,-1
 0 1000 l 1,5,-1
 200 1000 l 1,6,-1
 200 600 l 1,7,-1
 600 600 l 1,8,-1
 600 0 l 1,9,-1
 0 0 l 1,4,-1
EndSplineSet
EndChar

StartChar: seven
Encoding: 55 55 26
Width: 800
VWidth: 1200
GlyphClass: 2
Flags: W
LayerCount: 2
Fore
SplineSet
400 0 m 1,0,-1
 400 800 l 1,1,-1
 0 800 l 1,2,-1
 0 1000 l 1,3,-1
 600 1000 l 1,4,-1
 600 0 l 1,5,-1
 400 0 l 1,0,-1
EndSplineSet
EndChar

StartChar: eight
Encoding: 56 56 27
Width: 800
VWidth: 1200
GlyphClass: 2
Flags: W
LayerCount: 2
Fore
SplineSet
400 200 m 1,0,-1
 400 400 l 1,1,-1
 200 400 l 1,2,-1
 200 200 l 1,3,-1
 400 200 l 1,0,-1
400 600 m 1,4,-1
 400 800 l 1,5,-1
 200 800 l 1,6,-1
 200 600 l 1,7,-1
 400 600 l 1,4,-1
0 0 m 1,8,-1
 0 1000 l 1,9,-1
 600 1000 l 1,10,-1
 600 0 l 1,11,-1
 0 0 l 1,8,-1
EndSplineSet
EndChar

StartChar: nine
Encoding: 57 57 28
Width: 800
VWidth: 1200
GlyphClass: 2
Flags: W
LayerCount: 2
Fore
SplineSet
400 600 m 1,0,-1
 400 800 l 1,1,-1
 200 800 l 1,2,-1
 200 600 l 1,3,-1
 400 600 l 1,0,-1
400 0 m 1,4,-1
 400 400 l 1,5,-1
 0 400 l 1,6,-1
 0 1000 l 1,7,-1
 600 1000 l 1,8,-1
 600 0 l 1,9,-1
 400 0 l 1,4,-1
EndSplineSet
EndChar

StartChar: colon
Encoding: 58 58 29
Width: 800
VWidth: 1200
GlyphClass: 2
Flags: W
LayerCount: 2
Fore
SplineSet
200 200 m 1,0,-1
 200 400 l 1,1,-1
 400 400 l 1,2,-1
 400 200 l 1,3,-1
 200 200 l 1,0,-1
200 600 m 1,4,-1
 200 800 l 1,5,-1
 400 800 l 1,6,-1
 400 600 l 1,7,-1
 200 600 l 1,4,-1
EndSplineSet
EndChar

StartChar: semicolon
Encoding: 59 59 30
Width: 800
VWidth: 1200
GlyphClass: 2
Flags: W
LayerCount: 2
Fore
SplineSet
0 0 m 1,0,-1
 0 200 l 1,1,-1
 200 200 l 1,2,-1
 200 0 l 1,3,-1
 0 0 l 1,0,-1
200 200 m 1,4,-1
 200 400 l 1,5,-1
 400 400 l 1,6,-1
 400 200 l 1,7,-1
 200 200 l 1,4,-1
200 600 m 1,8,-1
 200 800 l 1,9,-1
 400 800 l 1,10,-1
 400 600 l 1,11,-1
 200 600 l 1,8,-1
EndSplineSet
EndChar

StartChar: less
Encoding: 60 60 31
Width: 800
VWidth: 1200
GlyphClass: 2
Flags: W
LayerCount: 2
Fore
SplineSet
400 0 m 1,0,-1
 400 200 l 1,1,-1
 600 200 l 1,2,-1
 600 0 l 1,3,-1
 400 0 l 1,0,-1
200 200 m 1,4,-1
 200 400 l 1,5,-1
 400 400 l 1,6,-1
 400 200 l 1,7,-1
 200 200 l 1,4,-1
0 400 m 1,8,-1
 0 600 l 1,9,-1
 200 600 l 1,10,-1
 200 400 l 1,11,-1
 0 400 l 1,8,-1
200 600 m 1,12,-1
 200 800 l 1,13,-1
 400 800 l 1,14,-1
 400 600 l 1,15,-1
 200 600 l 1,12,-1
400 800 m 1,16,-1
 400 1000 l 1,17,-1
 600 1000 l 1,18,-1
 600 800 l 1,19,-1
 400 800 l 1,16,-1
EndSplineSet
EndChar

StartChar: equal
Encoding: 61 61 32
Width: 800
VWidth: 1200
GlyphClass: 2
Flags: W
LayerCount: 2
Fore
SplineSet
0 200 m 1,0,-1
 0 400 l 1,1,-1
 600 400 l 1,2,-1
 600 200 l 1,3,-1
 0 200 l 1,0,-1
0 600 m 1,4,-1
 0 800 l 1,5,-1
 600 800 l 1,6,-1
 600 600 l 1,7,-1
 0 600 l 1,4,-1
EndSplineSet
EndChar

StartChar: greater
Encoding: 62 62 33
Width: 800
VWidth: 1200
GlyphClass: 2
Flags: W
LayerCount: 2
Fore
SplineSet
0 0 m 1,0,-1
 0 200 l 1,1,-1
 200 200 l 1,2,-1
 200 0 l 1,3,-1
 0 0 l 1,0,-1
200 200 m 1,4,-1
 200 400 l 1,5,-1
 400 400 l 1,6,-1
 400 200 l 1,7,-1
 200 200 l 1,4,-1
400 400 m 1,8,-1
 400 600 l 1,9,-1
 600 600 l 1,10,-1
 600 400 l 1,11,-1
 400 400 l 1,8,-1
200 600 m 1,12,-1
 200 800 l 1,13,-1
 400 800 l 1,14,-1
 400 600 l 1,15,-1
 200 600 l 1,12,-1
0 800 m 1,16,-1
 0 1000 l 1,17,-1
 200 1000 l 1,18,-1
 200 800 l 1,19,-1
 0 800 l 1,16,-1
EndSplineSet
EndChar

StartChar: question
Encoding: 63 63 34
Width: 800
VWidth: 1200
GlyphClass: 2
Flags: W
LayerCount: 2
Fore
SplineSet
200 0 m 1,0,-1
 200 200 l 1,1,-1
 400 200 l 1,2,-1
 400 0 l 1,3,-1
 200 0 l 1,0,-1
200 400 m 1,4,-1
 200 600 l 1,5,-1
 400 600 l 1,6,-1
 400 800 l 1,7,-1
 0 800 l 1,8,-1
 0 1000 l 1,9,-1
 600 1000 l 1,10,-1
 600 400 l 1,11,-1
 200 400 l 1,4,-1
EndSplineSet
EndChar

StartChar: at
Encoding: 64 64 35
Width: 800
VWidth: 1200
GlyphClass: 2
Flags: W
LayerCount: 2
Fore
SplineSet
200 0 m 1,0,-1
 200 200 l 1,1,-1
 600 200 l 1,2,-1
 600 0 l 1,3,-1
 200 0 l 1,0,-1
0 200 m 1,4,-1
 0 800 l 1,5,-1
 200 800 l 1,6,-1
 200 200 l 1,7,-1
 0 200 l 1,4,-1
400 400 m 1,8,-1
 400 800 l 1,9,-1
 600 800 l 1,10,-1
 600 400 l 1,11,-1
 400 400 l 1,8,-1
200 800 m 1,12,-1
 200 1000 l 1,13,-1
 400 1000 l 1,14,-1
 400 800 l 1,15,-1
 200 800 l 1,12,-1
EndSplineSet
EndChar

StartChar: A
Encoding: 65 65 36
Width: 800
VWidth: 1200
GlyphClass: 2
Flags: W
LayerCount: 2
Fore
SplineSet
400 600 m 1,0,-1
 400 800 l 1,1,-1
 200 800 l 1,2,-1
 200 600 l 1,3,-1
 400 600 l 1,0,-1
0 0 m 1,4,-1
 0 1000 l 1,5,-1
 600 1000 l 1,6,-1
 600 0 l 1,7,-1
 400 0 l 1,8,-1
 400 400 l 1,9,-1
 200 400 l 1,10,-1
 200 0 l 1,11,-1
 0 0 l 1,4,-1
EndSplineSet
EndChar

StartChar: B
Encoding: 66 66 37
Width: 800
VWidth: 1200
GlyphClass: 2
Flags: W
LayerCount: 2
Fore
SplineSet
0 0 m 1,0,-1
 0 1000 l 1,1,-1
 600 1000 l 1,2,-1
 600 600 l 1,3,-1
 400 600 l 1,4,-1
 400 800 l 1,5,-1
 200 800 l 1,6,-1
 200 600 l 1,7,-1
 400 600 l 1,8,-1
 400 400 l 1,9,-1
 200 400 l 1,10,-1
 200 200 l 1,11,-1
 400 200 l 1,12,-1
 400 400 l 1,13,-1
 600 400 l 1,14,-1
 600 0 l 1,15,-1
 0 0 l 1,0,-1
EndSplineSet
EndChar

StartChar: C
Encoding: 67 67 38
Width: 800
VWidth: 1200
GlyphClass: 2
Flags: W
LayerCount: 2
Fore
SplineSet
200 0 m 1,0,-1
 200 200 l 1,1,-1
 600 200 l 1,2,-1
 600 0 l 1,3,-1
 200 0 l 1,0,-1
0 200 m 1,4,-1
 0 800 l 1,5,-1
 200 800 l 1,6,-1
 200 200 l 1,7,-1
 0 200 l 1,4,-1
200 800 m 1,8,-1
 200 1000 l 1,9,-1
 600 1000 l 1,10,-1
 600 800 l 1,11,-1
 200 800 l 1,8,-1
EndSplineSet
EndChar

StartChar: D
Encoding: 68 68 39
Width: 800
VWidth: 1200
GlyphClass: 2
Flags: W
LayerCount: 2
Fore
SplineSet
0 0 m 1,0,-1
 0 1000 l 1,1,-1
 400 1000 l 1,2,-1
 400 800 l 1,3,-1
 200 800 l 1,4,-1
 200 200 l 1,5,-1
 400 200 l 1,6,-1
 400 800 l 1,7,-1
 600 800 l 1,8,-1
 600 0 l 1,9,-1
 0 0 l 1,0,-1
EndSplineSet
EndChar

StartChar: E
Encoding: 69 69 40
Width: 800
VWidth: 1200
GlyphClass: 2
Flags: W
LayerCount: 2
Fore
SplineSet
0 0 m 1,0,-1
 0 1000 l 1,1,-1
 600 1000 l 1,2,-1
 600 800 l 1,3,-1
 200 800 l 1,4,-1
 200 600 l 1,5,-1
 400 600 l 1,6,-1
 400 400 l 1,7,-1
 200 400 l 1,8,-1
 200 200 l 1,9,-1
 600 200 l 1,10,-1
 600 0 l 1,11,-1
 0 0 l 1,0,-1
EndSplineSet
EndChar

StartChar: F
Encoding: 70 70 41
Width: 800
VWidth: 1200
GlyphClass: 2
Flags: W
LayerCount: 2
Fore
SplineSet
0 0 m 1,0,-1
 0 1000 l 1,1,-1
 600 1000 l 1,2,-1
 600 800 l 1,3,-1
 200 800 l 1,4,-1
 200 600 l 1,5,-1
 400 600 l 1,6,-1
 400 400 l 1,7,-1
 200 400 l 1,8,-1
 200 0 l 1,9,-1
 0 0 l 1,0,-1
EndSplineSet
EndChar

StartChar: G
Encoding: 71 71 42
Width: 800
VWidth: 1200
GlyphClass: 2
Flags: W
LayerCount: 2
Fore
SplineSet
0 0 m 1,0,-1
 0 800 l 1,1,-1
 200 800 l 1,2,-1
 200 200 l 1,3,-1
 400 200 l 1,4,-1
 400 400 l 1,5,-1
 600 400 l 1,6,-1
 600 0 l 1,7,-1
 0 0 l 1,0,-1
200 800 m 1,8,-1
 200 1000 l 1,9,-1
 600 1000 l 1,10,-1
 600 800 l 1,11,-1
 200 800 l 1,8,-1
EndSplineSet
EndChar

StartChar: H
Encoding: 72 72 43
Width: 800
VWidth: 1200
GlyphClass: 2
Flags: W
LayerCount: 2
Fore
SplineSet
0 0 m 1,0,-1
 0 1000 l 1,1,-1
 200 1000 l 1,2,-1
 200 600 l 1,3,-1
 400 600 l 1,4,-1
 400 1000 l 1,5,-1
 600 1000 l 1,6,-1
 600 0 l 1,7,-1
 400 0 l 1,8,-1
 400 400 l 1,9,-1
 200 400 l 1,10,-1
 200 0 l 1,11,-1
 0 0 l 1,0,-1
EndSplineSet
EndChar

StartChar: I
Encoding: 73 73 44
Width: 800
VWidth: 1200
GlyphClass: 2
Flags: W
LayerCount: 2
Fore
SplineSet
0 0 m 1,0,-1
 0 200 l 1,1,-1
 200 200 l 1,2,-1
 200 800 l 1,3,-1
 0 800 l 1,4,-1
 0 1000 l 1,5,-1
 600 1000 l 1,6,-1
 600 800 l 1,7,-1
 400 800 l 1,8,-1
 400 200 l 1,9,-1
 600 200 l 1,10,-1
 600 0 l 1,11,-1
 0 0 l 1,0,-1
EndSplineSet
EndChar

StartChar: J
Encoding: 74 74 45
Width: 800
VWidth: 1200
GlyphClass: 2
Flags: W
LayerCount: 2
Fore
SplineSet
0 0 m 1,0,-1
 0 200 l 1,1,-1
 200 200 l 1,2,-1
 200 800 l 1,3,-1
 0 800 l 1,4,-1
 0 1000 l 1,5,-1
 600 1000 l 1,6,-1
 600 800 l 1,7,-1
 400 800 l 1,8,-1
 400 0 l 1,9,-1
 0 0 l 1,0,-1
EndSplineSet
EndChar

StartChar: K
Encoding: 75 75 46
Width: 800
VWidth: 1200
GlyphClass: 2
Flags: W
LayerCount: 2
Fore
SplineSet
400 0 m 1,0,-1
 400 400 l 1,1,-1
 600 400 l 1,2,-1
 600 0 l 1,3,-1
 400 0 l 1,0,-1
0 0 m 1,4,-1
 0 1000 l 1,5,-1
 200 1000 l 1,6,-1
 200 600 l 1,7,-1
 400 600 l 1,8,-1
 400 400 l 1,9,-1
 200 400 l 1,10,-1
 200 0 l 1,11,-1
 0 0 l 1,4,-1
400 600 m 1,12,-1
 400 1000 l 1,13,-1
 600 1000 l 1,14,-1
 600 600 l 1,15,-1
 400 600 l 1,12,-1
EndSplineSet
EndChar

StartChar: L
Encoding: 76 76 47
Width: 800
VWidth: 1200
GlyphClass: 2
Flags: W
LayerCount: 2
Fore
SplineSet
0 0 m 1,0,-1
 0 1000 l 1,1,-1
 200 1000 l 1,2,-1
 200 200 l 1,3,-1
 600 200 l 1,4,-1
 600 0 l 1,5,-1
 0 0 l 1,0,-1
EndSplineSet
EndChar

StartChar: M
Encoding: 77 77 48
Width: 800
VWidth: 1200
GlyphClass: 2
Flags: W
LayerCount: 2
Fore
SplineSet
0 0 m 1,0,-1
 0 1000 l 1,1,-1
 600 1000 l 1,2,-1
 600 0 l 1,3,-1
 400 0 l 1,4,-1
 400 600 l 1,5,-1
 200 600 l 1,6,-1
 200 0 l 1,7,-1
 0 0 l 1,0,-1
EndSplineSet
EndChar

StartChar: N
Encoding: 78 78 49
Width: 800
VWidth: 1200
GlyphClass: 2
Flags: W
LayerCount: 2
Fore
SplineSet
400 0 m 1,0,-1
 400 800 l 1,1,-1
 600 800 l 1,2,-1
 600 0 l 1,3,-1
 400 0 l 1,0,-1
0 0 m 1,4,-1
 0 1000 l 1,5,-1
 400 1000 l 1,6,-1
 400 800 l 1,7,-1
 200 800 l 1,8,-1
 200 0 l 1,9,-1
 0 0 l 1,4,-1
EndSplineSet
EndChar

StartChar: O
Encoding: 79 79 50
Width: 800
VWidth: 1200
GlyphClass: 2
Flags: W
LayerCount: 2
Fore
SplineSet
0 0 m 1,0,-1
 0 800 l 1,1,-1
 200 800 l 1,2,-1
 200 200 l 1,3,-1
 400 200 l 1,4,-1
 400 0 l 1,5,-1
 0 0 l 1,0,-1
400 200 m 1,6,-1
 400 800 l 1,7,-1
 200 800 l 1,8,-1
 200 1000 l 1,9,-1
 600 1000 l 1,10,-1
 600 200 l 1,11,-1
 400 200 l 1,6,-1
EndSplineSet
EndChar

StartChar: P
Encoding: 80 80 51
Width: 800
VWidth: 1200
GlyphClass: 2
Flags: W
LayerCount: 2
Fore
SplineSet
400 600 m 1,0,-1
 400 800 l 1,1,-1
 200 800 l 1,2,-1
 200 600 l 1,3,-1
 400 600 l 1,0,-1
0 0 m 1,4,-1
 0 1000 l 1,5,-1
 600 1000 l 1,6,-1
 600 400 l 1,7,-1
 200 400 l 1,8,-1
 200 0 l 1,9,-1
 0 0 l 1,4,-1
EndSplineSet
EndChar

StartChar: Q
Encoding: 81 81 52
Width: 800
VWidth: 1200
GlyphClass: 2
Flags: W
LayerCount: 2
Fore
SplineSet
200 0 m 1,0,-1
 200 200 l 1,1,-1
 0 200 l 1,2,-1
 0 800 l 1,3,-1
 200 800 l 1,4,-1
 200 400 l 1,5,-1
 400 400 l 1,6,-1
 400 200 l 1,7,-1
 600 200 l 1,8,-1
 600 0 l 1,9,-1
 200 0 l 1,0,-1
400 400 m 1,10,-1
 400 800 l 1,11,-1
 600 800 l 1,12,-1
 600 400 l 1,13,-1
 400 400 l 1,10,-1
200 800 m 1,14,-1
 200 1000 l 1,15,-1
 400 1000 l 1,16,-1
 400 800 l 1,17,-1
 200 800 l 1,14,-1
EndSplineSet
EndChar

StartChar: R
Encoding: 82 82 53
Width: 800
VWidth: 1200
GlyphClass: 2
Flags: W
LayerCount: 2
Fore
SplineSet
400 0 m 1,0,-1
 400 400 l 1,1,-1
 600 400 l 1,2,-1
 600 0 l 1,3,-1
 400 0 l 1,0,-1
0 0 m 1,4,-1
 0 1000 l 1,5,-1
 600 1000 l 1,6,-1
 600 600 l 1,7,-1
 400 600 l 1,8,-1
 400 800 l 1,9,-1
 200 800 l 1,10,-1
 200 600 l 1,11,-1
 400 600 l 1,12,-1
 400 400 l 1,13,-1
 200 400 l 1,14,-1
 200 0 l 1,15,-1
 0 0 l 1,4,-1
EndSplineSet
EndChar

StartChar: S
Encoding: 83 83 54
Width: 800
VWidth: 1200
GlyphClass: 2
Flags: W
LayerCount: 2
Fore
SplineSet
0 0 m 1,0,-1
 0 200 l 1,1,-1
 400 200 l 1,2,-1
 400 0 l 1,3,-1
 0 0 l 1,0,-1
400 200 m 1,4,-1
 400 400 l 1,5,-1
 0 400 l 1,6,-1
 0 800 l 1,7,-1
 200 800 l 1,8,-1
 200 600 l 1,9,-1
 600 600 l 1,10,-1
 600 200 l 1,11,-1
 400 200 l 1,4,-1
200 800 m 1,12,-1
 200 1000 l 1,13,-1
 600 1000 l 1,14,-1
 600 800 l 1,15,-1
 200 800 l 1,12,-1
EndSplineSet
EndChar

StartChar: T
Encoding: 84 84 55
Width: 800
VWidth: 1200
GlyphClass: 2
Flags: W
LayerCount: 2
Fore
SplineSet
200 0 m 1,0,-1
 200 800 l 1,1,-1
 0 800 l 1,2,-1
 0 1000 l 1,3,-1
 600 1000 l 1,4,-1
 600 800 l 1,5,-1
 400 800 l 1,6,-1
 400 0 l 1,7,-1
 200 0 l 1,0,-1
EndSplineSet
EndChar

StartChar: U
Encoding: 85 85 56
Width: 800
VWidth: 1200
GlyphClass: 2
Flags: W
LayerCount: 2
Fore
SplineSet
0 200 m 1,0,-1
 0 1000 l 1,1,-1
 200 1000 l 1,2,-1
 200 200 l 1,3,-1
 0 200 l 1,0,-1
200 0 m 1,4,-1
 200 200 l 1,5,-1
 400 200 l 1,6,-1
 400 1000 l 1,7,-1
 600 1000 l 1,8,-1
 600 0 l 1,9,-1
 200 0 l 1,4,-1
EndSplineSet
EndChar

StartChar: V
Encoding: 86 86 57
Width: 800
VWidth: 1200
GlyphClass: 2
Flags: W
LayerCount: 2
Fore
SplineSet
200 0 m 1,0,-1
 200 200 l 1,1,-1
 0 200 l 1,2,-1
 0 1000 l 1,3,-1
 200 1000 l 1,4,-1
 200 400 l 1,5,-1
 400 400 l 1,6,-1
 400 1000 l 1,7,-1
 600 1000 l 1,8,-1
 600 200 l 1,9,-1
 400 200 l 1,10,-1
 400 0 l 1,11,-1
 200 0 l 1,0,-1
EndSplineSet
EndChar

StartChar: W
Encoding: 87 87 58
Width: 800
VWidth: 1200
GlyphClass: 2
Flags: W
LayerCount: 2
Fore
SplineSet
0 0 m 1,0,-1
 0 1000 l 1,1,-1
 200 1000 l 1,2,-1
 200 400 l 1,3,-1
 400 400 l 1,4,-1
 400 1000 l 1,5,-1
 600 1000 l 1,6,-1
 600 0 l 1,7,-1
 0 0 l 1,0,-1
EndSplineSet
EndChar

StartChar: X
Encoding: 88 88 59
Width: 800
VWidth: 1200
GlyphClass: 2
Flags: W
LayerCount: 2
Fore
SplineSet
0 0 m 1,0,-1
 0 400 l 1,1,-1
 200 400 l 1,2,-1
 200 0 l 1,3,-1
 0 0 l 1,0,-1
400 0 m 1,4,-1
 400 400 l 1,5,-1
 600 400 l 1,6,-1
 600 0 l 1,7,-1
 400 0 l 1,4,-1
200 400 m 1,8,-1
 200 600 l 1,9,-1
 400 600 l 1,10,-1
 400 400 l 1,11,-1
 200 400 l 1,8,-1
0 600 m 1,12,-1
 0 1000 l 1,13,-1
 200 1000 l 1,14,-1
 200 600 l 1,15,-1
 0 600 l 1,12,-1
400 600 m 1,16,-1
 400 1000 l 1,17,-1
 600 1000 l 1,18,-1
 600 600 l 1,19,-1
 400 600 l 1,16,-1
EndSplineSet
EndChar

StartChar: Y
Encoding: 89 89 60
Width: 800
VWidth: 1200
GlyphClass: 2
Flags: W
LayerCount: 2
Fore
SplineSet
0 0 m 1,0,-1
 0 200 l 1,1,-1
 400 200 l 1,2,-1
 400 400 l 1,3,-1
 0 400 l 1,4,-1
 0 1000 l 1,5,-1
 200 1000 l 1,6,-1
 200 600 l 1,7,-1
 400 600 l 1,8,-1
 400 1000 l 1,9,-1
 600 1000 l 1,10,-1
 600 0 l 1,11,-1
 0 0 l 1,0,-1
EndSplineSet
EndChar

StartChar: Z
Encoding: 90 90 61
Width: 800
VWidth: 1200
GlyphClass: 2
Flags: W
LayerCount: 2
Fore
SplineSet
0 0 m 1,0,-1
 0 400 l 1,1,-1
 200 400 l 1,2,-1
 200 200 l 1,3,-1
 600 200 l 1,4,-1
 600 0 l 1,5,-1
 0 0 l 1,0,-1
200 400 m 1,6,-1
 200 600 l 1,7,-1
 400 600 l 1,8,-1
 400 400 l 1,9,-1
 200 400 l 1,6,-1
400 600 m 1,10,-1
 400 800 l 1,11,-1
 0 800 l 1,12,-1
 0 1000 l 1,13,-1
 600 1000 l 1,14,-1
 600 600 l 1,15,-1
 400 600 l 1,10,-1
EndSplineSet
EndChar

StartChar: bracketleft
Encoding: 91 91 62
Width: 800
VWidth: 1200
GlyphClass: 2
Flags: W
LayerCount: 2
Fore
SplineSet
0 0 m 1,0,-1
 0 1000 l 1,1,-1
 400 1000 l 1,2,-1
 400 800 l 1,3,-1
 200 800 l 1,4,-1
 200 200 l 1,5,-1
 400 200 l 1,6,-1
 400 0 l 1,7,-1
 0 0 l 1,0,-1
EndSplineSet
EndChar

StartChar: backslash
Encoding: 92 92 63
Width: 800
VWidth: 1200
GlyphClass: 2
Flags: W
LayerCount: 2
Fore
SplineSet
400 0 m 1,0,-1
 400 200 l 1,1,-1
 600 200 l 1,2,-1
 600 0 l 1,3,-1
 400 0 l 1,0,-1
200 200 m 1,4,-1
 200 800 l 1,5,-1
 400 800 l 1,6,-1
 400 200 l 1,7,-1
 200 200 l 1,4,-1
0 800 m 1,8,-1
 0 1000 l 1,9,-1
 200 1000 l 1,10,-1
 200 800 l 1,11,-1
 0 800 l 1,8,-1
EndSplineSet
EndChar

StartChar: bracketright
Encoding: 93 93 64
Width: 800
VWidth: 1200
GlyphClass: 2
Flags: W
LayerCount: 2
Fore
SplineSet
200 0 m 1,0,-1
 200 200 l 1,1,-1
 400 200 l 1,2,-1
 400 800 l 1,3,-1
 200 800 l 1,4,-1
 200 1000 l 1,5,-1
 600 1000 l 1,6,-1
 600 0 l 1,7,-1
 200 0 l 1,0,-1
EndSplineSet
EndChar

StartChar: asciicircum
Encoding: 94 94 65
Width: 800
VWidth: 1200
GlyphClass: 2
Flags: W
LayerCount: 2
Fore
SplineSet
0 600 m 1,0,-1
 0 800 l 1,1,-1
 200 800 l 1,2,-1
 200 600 l 1,3,-1
 0 600 l 1,0,-1
400 600 m 1,4,-1
 400 800 l 1,5,-1
 600 800 l 1,6,-1
 600 600 l 1,7,-1
 400 600 l 1,4,-1
200 800 m 1,8,-1
 200 1000 l 1,9,-1
 400 1000 l 1,10,-1
 400 800 l 1,11,-1
 200 800 l 1,8,-1
EndSplineSet
EndChar

StartChar: underscore
Encoding: 95 95 66
Width: 800
VWidth: 1200
GlyphClass: 2
Flags: W
LayerCount: 2
Fore
SplineSet
0 0 m 1,0,-1
 0 200 l 1,1,-1
 600 200 l 1,2,-1
 600 0 l 1,3,-1
 0 0 l 1,0,-1
EndSplineSet
EndChar

StartChar: grave
Encoding: 96 96 67
Width: 800
VWidth: 1200
GlyphClass: 2
Flags: W
LayerCount: 2
Fore
SplineSet
400 600 m 1,0,-1
 400 800 l 1,1,-1
 600 800 l 1,2,-1
 600 600 l 1,3,-1
 400 600 l 1,0,-1
200 800 m 1,4,-1
 200 1000 l 1,5,-1
 400 1000 l 1,6,-1
 400 800 l 1,7,-1
 200 800 l 1,4,-1
EndSplineSet
EndChar

StartChar: a
Encoding: 97 97 68
Width: 800
VWidth: 1200
GlyphClass: 2
Flags: W
LayerCount: 2
Fore
SplineSet
400 400 m 1,0,-1
 400 600 l 1,1,-1
 200 600 l 1,2,-1
 200 400 l 1,3,-1
 400 400 l 1,0,-1
0 0 m 1,4,-1
 0 800 l 1,5,-1
 600 800 l 1,6,-1
 600 0 l 1,7,-1
 400 0 l 1,8,-1
 400 200 l 1,9,-1
 200 200 l 1,10,-1
 200 0 l 1,11,-1
 0 0 l 1,4,-1
EndSplineSet
EndChar

StartChar: b
Encoding: 98 98 69
Width: 800
VWidth: 1200
GlyphClass: 2
Flags: W
LayerCount: 2
Fore
SplineSet
0 0 m 1,0,-1
 0 800 l 1,1,-1
 400 800 l 1,2,-1
 400 400 l 1,3,-1
 200 400 l 1,4,-1
 200 200 l 1,5,-1
 400 200 l 1,6,-1
 400 400 l 1,7,-1
 600 400 l 1,8,-1
 600 0 l 1,9,-1
 0 0 l 1,0,-1
EndSplineSet
EndChar

StartChar: c
Encoding: 99 99 70
Width: 800
VWidth: 1200
GlyphClass: 2
Flags: W
LayerCount: 2
Fore
SplineSet
0 0 m 1,0,-1
 0 800 l 1,1,-1
 600 800 l 1,2,-1
 600 600 l 1,3,-1
 200 600 l 1,4,-1
 200 200 l 1,5,-1
 600 200 l 1,6,-1
 600 0 l 1,7,-1
 0 0 l 1,0,-1
EndSplineSet
EndChar

StartChar: d
Encoding: 100 100 71
Width: 800
VWidth: 1200
GlyphClass: 2
Flags: W
LayerCount: 2
Fore
SplineSet
400 200 m 1,0,-1
 400 600 l 1,1,-1
 600 600 l 1,2,-1
 600 200 l 1,3,-1
 400 200 l 1,0,-1
0 0 m 1,4,-1
 0 800 l 1,5,-1
 400 800 l 1,6,-1
 400 600 l 1,7,-1
 200 600 l 1,8,-1
 200 200 l 1,9,-1
 400 200 l 1,10,-1
 400 0 l 1,11,-1
 0 0 l 1,4,-1
EndSplineSet
EndChar

StartChar: e
Encoding: 101 101 72
Width: 800
VWidth: 1200
GlyphClass: 2
Flags: W
LayerCount: 2
Fore
SplineSet
0 0 m 1,0,-1
 0 800 l 1,1,-1
 600 800 l 1,2,-1
 600 600 l 1,3,-1
 400 600 l 1,4,-1
 400 400 l 1,5,-1
 200 400 l 1,6,-1
 200 200 l 1,7,-1
 600 200 l 1,8,-1
 600 0 l 1,9,-1
 0 0 l 1,0,-1
EndSplineSet
EndChar

StartChar: f
Encoding: 102 102 73
Width: 800
VWidth: 1200
GlyphClass: 2
Flags: W
LayerCount: 2
Fore
SplineSet
0 0 m 1,0,-1
 0 800 l 1,1,-1
 600 800 l 1,2,-1
 600 600 l 1,3,-1
 400 600 l 1,4,-1
 400 400 l 1,5,-1
 200 400 l 1,6,-1
 200 0 l 1,7,-1
 0 0 l 1,0,-1
EndSplineSet
EndChar

StartChar: g
Encoding: 103 103 74
Width: 800
VWidth: 1200
GlyphClass: 2
Flags: W
LayerCount: 2
Fore
SplineSet
0 0 m 1,0,-1
 0 800 l 1,1,-1
 600 800 l 1,2,-1
 600 600 l 1,3,-1
 200 600 l 1,4,-1
 200 200 l 1,5,-1
 400 200 l 1,6,-1
 400 400 l 1,7,-1
 600 400 l 1,8,-1
 600 0 l 1,9,-1
 0 0 l 1,0,-1
EndSplineSet
EndChar

StartChar: h
Encoding: 104 104 75
Width: 800
VWidth: 1200
GlyphClass: 2
Flags: W
LayerCount: 2
Fore
SplineSet
0 0 m 1,0,-1
 0 800 l 1,1,-1
 200 800 l 1,2,-1
 200 400 l 1,3,-1
 400 400 l 1,4,-1
 400 800 l 1,5,-1
 600 800 l 1,6,-1
 600 0 l 1,7,-1
 400 0 l 1,8,-1
 400 200 l 1,9,-1
 200 200 l 1,10,-1
 200 0 l 1,11,-1
 0 0 l 1,0,-1
EndSplineSet
EndChar

StartChar: i
Encoding: 105 105 76
Width: 800
VWidth: 1200
GlyphClass: 2
Flags: W
LayerCount: 2
Fore
SplineSet
0 0 m 1,0,-1
 0 200 l 1,1,-1
 200 200 l 1,2,-1
 200 600 l 1,3,-1
 0 600 l 1,4,-1
 0 800 l 1,5,-1
 600 800 l 1,6,-1
 600 600 l 1,7,-1
 400 600 l 1,8,-1
 400 200 l 1,9,-1
 600 200 l 1,10,-1
 600 0 l 1,11,-1
 0 0 l 1,0,-1
EndSplineSet
EndChar

StartChar: j
Encoding: 106 106 77
Width: 800
VWidth: 1200
GlyphClass: 2
Flags: W
LayerCount: 2
Fore
SplineSet
0 0 m 1,0,-1
 0 200 l 1,1,-1
 200 200 l 1,2,-1
 200 600 l 1,3,-1
 0 600 l 1,4,-1
 0 800 l 1,5,-1
 600 800 l 1,6,-1
 600 600 l 1,7,-1
 400 600 l 1,8,-1
 400 0 l 1,9,-1
 0 0 l 1,0,-1
EndSplineSet
EndChar

StartChar: k
Encoding: 107 107 78
Width: 800
VWidth: 1200
GlyphClass: 2
Flags: W
LayerCount: 2
Fore
SplineSet
400 0 m 1,0,-1
 400 400 l 1,1,-1
 600 400 l 1,2,-1
 600 0 l 1,3,-1
 400 0 l 1,0,-1
0 0 m 1,4,-1
 0 800 l 1,5,-1
 200 800 l 1,6,-1
 200 600 l 1,7,-1
 400 600 l 1,8,-1
 400 400 l 1,9,-1
 200 400 l 1,10,-1
 200 0 l 1,11,-1
 0 0 l 1,4,-1
400 600 m 1,12,-1
 400 800 l 1,13,-1
 600 800 l 1,14,-1
 600 600 l 1,15,-1
 400 600 l 1,12,-1
EndSplineSet
EndChar

StartChar: l
Encoding: 108 108 79
Width: 800
VWidth: 1200
GlyphClass: 2
Flags: W
LayerCount: 2
Fore
SplineSet
0 0 m 1,0,-1
 0 800 l 1,1,-1
 200 800 l 1,2,-1
 200 200 l 1,3,-1
 600 200 l 1,4,-1
 600 0 l 1,5,-1
 0 0 l 1,0,-1
EndSplineSet
EndChar

StartChar: m
Encoding: 109 109 80
Width: 800
VWidth: 1200
GlyphClass: 2
Flags: W
LayerCount: 2
Fore
SplineSet
0 0 m 1,0,-1
 0 800 l 1,1,-1
 600 800 l 1,2,-1
 600 0 l 1,3,-1
 400 0 l 1,4,-1
 400 400 l 1,5,-1
 200 400 l 1,6,-1
 200 0 l 1,7,-1
 0 0 l 1,0,-1
EndSplineSet
EndChar

StartChar: n
Encoding: 110 110 81
Width: 800
VWidth: 1200
GlyphClass: 2
Flags: W
LayerCount: 2
Fore
SplineSet
400 0 m 1,0,-1
 400 600 l 1,1,-1
 600 600 l 1,2,-1
 600 0 l 1,3,-1
 400 0 l 1,0,-1
0 0 m 1,4,-1
 0 800 l 1,5,-1
 400 800 l 1,6,-1
 400 600 l 1,7,-1
 200 600 l 1,8,-1
 200 0 l 1,9,-1
 0 0 l 1,4,-1
EndSplineSet
EndChar

StartChar: o
Encoding: 111 111 82
Width: 800
VWidth: 1200
GlyphClass: 2
Flags: W
LayerCount: 2
Fore
SplineSet
0 0 m 1,0,-1
 0 600 l 1,1,-1
 200 600 l 1,2,-1
 200 200 l 1,3,-1
 400 200 l 1,4,-1
 400 0 l 1,5,-1
 0 0 l 1,0,-1
400 200 m 1,6,-1
 400 600 l 1,7,-1
 200 600 l 1,8,-1
 200 800 l 1,9,-1
 600 800 l 1,10,-1
 600 200 l 1,11,-1
 400 200 l 1,6,-1
EndSplineSet
EndChar

StartChar: p
Encoding: 112 112 83
Width: 800
VWidth: 1200
GlyphClass: 2
Flags: W
LayerCount: 2
Fore
SplineSet
400 400 m 1,0,-1
 400 600 l 1,1,-1
 200 600 l 1,2,-1
 200 400 l 1,3,-1
 400 400 l 1,0,-1
0 0 m 1,4,-1
 0 800 l 1,5,-1
 600 800 l 1,6,-1
 600 200 l 1,7,-1
 200 200 l 1,8,-1
 200 0 l 1,9,-1
 0 0 l 1,4,-1
EndSplineSet
EndChar

StartChar: q
Encoding: 113 113 84
Width: 800
VWidth: 1200
GlyphClass: 2
Flags: W
LayerCount: 2
Fore
SplineSet
200 0 m 1,0,-1
 200 200 l 1,1,-1
 0 200 l 1,2,-1
 0 600 l 1,3,-1
 200 600 l 1,4,-1
 200 400 l 1,5,-1
 400 400 l 1,6,-1
 400 200 l 1,7,-1
 600 200 l 1,8,-1
 600 0 l 1,9,-1
 200 0 l 1,0,-1
400 400 m 1,10,-1
 400 600 l 1,11,-1
 600 600 l 1,12,-1
 600 400 l 1,13,-1
 400 400 l 1,10,-1
200 600 m 1,14,-1
 200 800 l 1,15,-1
 400 800 l 1,16,-1
 400 600 l 1,17,-1
 200 600 l 1,14,-1
EndSplineSet
EndChar

StartChar: r
Encoding: 114 114 85
Width: 800
VWidth: 1200
GlyphClass: 2
Flags: W
LayerCount: 2
Fore
SplineSet
400 0 m 1,0,-1
 400 200 l 1,1,-1
 600 200 l 1,2,-1
 600 0 l 1,3,-1
 400 0 l 1,0,-1
0 0 m 1,4,-1
 0 800 l 1,5,-1
 600 800 l 1,6,-1
 600 400 l 1,7,-1
 400 400 l 1,8,-1
 400 600 l 1,9,-1
 200 600 l 1,10,-1
 200 400 l 1,11,-1
 400 400 l 1,12,-1
 400 200 l 1,13,-1
 200 200 l 1,14,-1
 200 0 l 1,15,-1
 0 0 l 1,4,-1
EndSplineSet
EndChar

StartChar: s
Encoding: 115 115 86
Width: 800
VWidth: 1200
GlyphClass: 2
Flags: W
LayerCount: 2
Fore
SplineSet
0 0 m 1,0,-1
 0 200 l 1,1,-1
 400 200 l 1,2,-1
 400 0 l 1,3,-1
 0 0 l 1,0,-1
400 200 m 1,4,-1
 400 400 l 1,5,-1
 600 400 l 1,6,-1
 600 200 l 1,7,-1
 400 200 l 1,4,-1
0 400 m 1,8,-1
 0 600 l 1,9,-1
 200 600 l 1,10,-1
 200 400 l 1,11,-1
 0 400 l 1,8,-1
200 600 m 1,12,-1
 200 800 l 1,13,-1
 600 800 l 1,14,-1
 600 600 l 1,15,-1
 200 600 l 1,12,-1
EndSplineSet
EndChar

StartChar: t
Encoding: 116 116 87
Width: 800
VWidth: 1200
GlyphClass: 2
Flags: W
LayerCount: 2
Fore
SplineSet
200 0 m 1,0,-1
 200 600 l 1,1,-1
 0 600 l 1,2,-1
 0 800 l 1,3,-1
 600 800 l 1,4,-1
 600 600 l 1,5,-1
 400 600 l 1,6,-1
 400 0 l 1,7,-1
 200 0 l 1,0,-1
EndSplineSet
EndChar

StartChar: u
Encoding: 117 117 88
Width: 800
VWidth: 1200
GlyphClass: 2
Flags: W
LayerCount: 2
Fore
SplineSet
0 200 m 1,0,-1
 0 800 l 1,1,-1
 200 800 l 1,2,-1
 200 200 l 1,3,-1
 0 200 l 1,0,-1
200 0 m 1,4,-1
 200 200 l 1,5,-1
 400 200 l 1,6,-1
 400 800 l 1,7,-1
 600 800 l 1,8,-1
 600 0 l 1,9,-1
 200 0 l 1,4,-1
EndSplineSet
EndChar

StartChar: v
Encoding: 118 118 89
Width: 800
VWidth: 1200
GlyphClass: 2
Flags: W
LayerCount: 2
Fore
SplineSet
200 0 m 1,0,-1
 200 200 l 1,1,-1
 0 200 l 1,2,-1
 0 800 l 1,3,-1
 200 800 l 1,4,-1
 200 400 l 1,5,-1
 400 400 l 1,6,-1
 400 800 l 1,7,-1
 600 800 l 1,8,-1
 600 200 l 1,9,-1
 400 200 l 1,10,-1
 400 0 l 1,11,-1
 200 0 l 1,0,-1
EndSplineSet
EndChar

StartChar: w
Encoding: 119 119 90
Width: 800
VWidth: 1200
GlyphClass: 2
Flags: W
LayerCount: 2
Fore
SplineSet
0 0 m 1,0,-1
 0 800 l 1,1,-1
 200 800 l 1,2,-1
 200 400 l 1,3,-1
 400 400 l 1,4,-1
 400 800 l 1,5,-1
 600 800 l 1,6,-1
 600 0 l 1,7,-1
 0 0 l 1,0,-1
EndSplineSet
EndChar

StartChar: x
Encoding: 120 120 91
Width: 800
VWidth: 1200
GlyphClass: 2
Flags: W
LayerCount: 2
Fore
SplineSet
0 0 m 1,0,-1
 0 400 l 1,1,-1
 200 400 l 1,2,-1
 200 0 l 1,3,-1
 0 0 l 1,0,-1
400 0 m 1,4,-1
 400 400 l 1,5,-1
 600 400 l 1,6,-1
 600 0 l 1,7,-1
 400 0 l 1,4,-1
200 400 m 1,8,-1
 200 600 l 1,9,-1
 400 600 l 1,10,-1
 400 400 l 1,11,-1
 200 400 l 1,8,-1
0 600 m 1,12,-1
 0 800 l 1,13,-1
 200 800 l 1,14,-1
 200 600 l 1,15,-1
 0 600 l 1,12,-1
400 600 m 1,16,-1
 400 800 l 1,17,-1
 600 800 l 1,18,-1
 600 600 l 1,19,-1
 400 600 l 1,16,-1
EndSplineSet
EndChar

StartChar: y
Encoding: 121 121 92
Width: 800
VWidth: 1200
GlyphClass: 2
Flags: W
LayerCount: 2
Fore
SplineSet
0 0 m 1,0,-1
 0 200 l 1,1,-1
 400 200 l 1,2,-1
 400 400 l 1,3,-1
 0 400 l 1,4,-1
 0 800 l 1,5,-1
 200 800 l 1,6,-1
 200 600 l 1,7,-1
 400 600 l 1,8,-1
 400 800 l 1,9,-1
 600 800 l 1,10,-1
 600 0 l 1,11,-1
 0 0 l 1,0,-1
EndSplineSet
EndChar

StartChar: z
Encoding: 122 122 93
Width: 800
VWidth: 1200
GlyphClass: 2
Flags: W
LayerCount: 2
Fore
SplineSet
0 0 m 1,0,-1
 0 400 l 1,1,-1
 200 400 l 1,2,-1
 200 200 l 1,3,-1
 600 200 l 1,4,-1
 600 0 l 1,5,-1
 0 0 l 1,0,-1
400 400 m 1,6,-1
 400 600 l 1,7,-1
 0 600 l 1,8,-1
 0 800 l 1,9,-1
 600 800 l 1,10,-1
 600 400 l 1,11,-1
 400 400 l 1,6,-1
EndSplineSet
EndChar

StartChar: braceleft
Encoding: 123 123 94
Width: 800
VWidth: 1200
GlyphClass: 2
Flags: W
LayerCount: 2
Fore
SplineSet
200 0 m 1,0,-1
 200 400 l 1,1,-1
 0 400 l 1,2,-1
 0 600 l 1,3,-1
 200 600 l 1,4,-1
 200 1000 l 1,5,-1
 600 1000 l 1,6,-1
 600 800 l 1,7,-1
 400 800 l 1,8,-1
 400 200 l 1,9,-1
 600 200 l 1,10,-1
 600 0 l 1,11,-1
 200 0 l 1,0,-1
EndSplineSet
EndChar

StartChar: bar
Encoding: 124 124 95
Width: 800
VWidth: 1200
GlyphClass: 2
Flags: W
LayerCount: 2
Fore
SplineSet
200 0 m 1,0,-1
 200 1000 l 1,1,-1
 400 1000 l 1,2,-1
 400 0 l 1,3,-1
 200 0 l 1,0,-1
EndSplineSet
EndChar

StartChar: braceright
Encoding: 125 125 96
Width: 800
VWidth: 1200
GlyphClass: 2
Flags: W
LayerCount: 2
Fore
SplineSet
0 0 m 1,0,-1
 0 200 l 1,1,-1
 200 200 l 1,2,-1
 200 800 l 1,3,-1
 0 800 l 1,4,-1
 0 1000 l 1,5,-1
 400 1000 l 1,6,-1
 400 600 l 1,7,-1
 600 600 l 1,8,-1
 600 400 l 1,9,-1
 400 400 l 1,10,-1
 400 0 l 1,11,-1
 0 0 l 1,0,-1
EndSplineSet
EndChar

StartChar: asciitilde
Encoding: 126 126 97
Width: 800
VWidth: 1200
GlyphClass: 2
Flags: W
LayerCount: 2
Fore
SplineSet
0 200 m 1,0,-1
 0 600 l 1,1,-1
 400 600 l 1,2,-1
 400 800 l 1,3,-1
 600 800 l 1,4,-1
 600 400 l 1,5,-1
 200 400 l 1,6,-1
 200 200 l 1,7,-1
 0 200 l 1,0,-1
EndSplineSet
EndChar

StartChar: uni007F
Encoding: 127 127 98
Width: 800
VWidth: 1200
GlyphClass: 2
Flags: W
LayerCount: 2
Fore
SplineSet
0 0 m 1,0,-1
 0 600 l 1,1,-1
 200 600 l 1,2,-1
 200 200 l 1,3,-1
 400 200 l 1,4,-1
 400 600 l 1,5,-1
 600 600 l 1,6,-1
 600 0 l 1,7,-1
 0 0 l 1,0,-1
200 600 m 1,8,-1
 200 800 l 1,9,-1
 400 800 l 1,10,-1
 400 600 l 1,11,-1
 200 600 l 1,8,-1
EndSplineSet
EndChar

StartChar: uni0080
Encoding: 128 128 99
Width: 1600
VWidth: 1200
GlyphClass: 2
Flags: W
LayerCount: 2
Fore
SplineSet
0 0 m 1,0,-1
 0 1000 l 1,1,-1
 1400 1000 l 1,2,-1
 1400 0 l 1,3,-1
 0 0 l 1,0,-1
EndSplineSet
EndChar

StartChar: uni0081
Encoding: 129 129 100
Width: 1600
VWidth: 1200
GlyphClass: 2
Flags: W
LayerCount: 2
Fore
SplineSet
0 0 m 1,0,-1
 0 200 l 1,1,-1
 200 200 l 1,2,-1
 200 0 l 1,3,-1
 0 0 l 1,0,-1
400 0 m 1,4,-1
 400 200 l 1,5,-1
 600 200 l 1,6,-1
 600 0 l 1,7,-1
 400 0 l 1,4,-1
800 0 m 1,8,-1
 800 200 l 1,9,-1
 1000 200 l 1,10,-1
 1000 0 l 1,11,-1
 800 0 l 1,8,-1
1200 0 m 1,12,-1
 1200 200 l 1,13,-1
 1400 200 l 1,14,-1
 1400 0 l 1,15,-1
 1200 0 l 1,12,-1
200 200 m 1,16,-1
 200 400 l 1,17,-1
 400 400 l 1,18,-1
 400 200 l 1,19,-1
 200 200 l 1,16,-1
600 200 m 1,20,-1
 600 400 l 1,21,-1
 800 400 l 1,22,-1
 800 200 l 1,23,-1
 600 200 l 1,20,-1
1000 200 m 1,24,-1
 1000 400 l 1,25,-1
 1200 400 l 1,26,-1
 1200 200 l 1,27,-1
 1000 200 l 1,24,-1
0 400 m 1,28,-1
 0 600 l 1,29,-1
 200 600 l 1,30,-1
 200 400 l 1,31,-1
 0 400 l 1,28,-1
400 400 m 1,32,-1
 400 600 l 1,33,-1
 600 600 l 1,34,-1
 600 400 l 1,35,-1
 400 400 l 1,32,-1
800 400 m 1,36,-1
 800 600 l 1,37,-1
 1000 600 l 1,38,-1
 1000 400 l 1,39,-1
 800 400 l 1,36,-1
1200 400 m 1,40,-1
 1200 600 l 1,41,-1
 1400 600 l 1,42,-1
 1400 400 l 1,43,-1
 1200 400 l 1,40,-1
200 600 m 1,44,-1
 200 800 l 1,45,-1
 400 800 l 1,46,-1
 400 600 l 1,47,-1
 200 600 l 1,44,-1
600 600 m 1,48,-1
 600 800 l 1,49,-1
 800 800 l 1,50,-1
 800 600 l 1,51,-1
 600 600 l 1,48,-1
1000 600 m 1,52,-1
 1000 800 l 1,53,-1
 1200 800 l 1,54,-1
 1200 600 l 1,55,-1
 1000 600 l 1,52,-1
0 800 m 1,56,-1
 0 1000 l 1,57,-1
 200 1000 l 1,58,-1
 200 800 l 1,59,-1
 0 800 l 1,56,-1
400 800 m 1,60,-1
 400 1000 l 1,61,-1
 600 1000 l 1,62,-1
 600 800 l 1,63,-1
 400 800 l 1,60,-1
800 800 m 1,64,-1
 800 1000 l 1,65,-1
 1000 1000 l 1,66,-1
 1000 800 l 1,67,-1
 800 800 l 1,64,-1
1200 800 m 1,68,-1
 1200 1000 l 1,69,-1
 1400 1000 l 1,70,-1
 1400 800 l 1,71,-1
 1200 800 l 1,68,-1
EndSplineSet
EndChar

StartChar: uni0082
Encoding: 130 130 101
Width: 1600
VWidth: 1200
GlyphClass: 2
Flags: W
LayerCount: 2
Fore
SplineSet
200 0 m 1,0,-1
 200 200 l 1,1,-1
 400 200 l 1,2,-1
 400 600 l 1,3,-1
 200 600 l 1,4,-1
 200 200 l 1,5,-1
 0 200 l 1,6,-1
 0 1000 l 1,7,-1
 200 1000 l 1,8,-1
 200 800 l 1,9,-1
 1200 800 l 1,10,-1
 1200 1000 l 1,11,-1
 1400 1000 l 1,12,-1
 1400 200 l 1,13,-1
 1200 200 l 1,14,-1
 1200 600 l 1,15,-1
 1000 600 l 1,16,-1
 1000 200 l 1,17,-1
 1200 200 l 1,18,-1
 1200 0 l 1,19,-1
 200 0 l 1,0,-1
EndSplineSet
EndChar

StartChar: uni0083
Encoding: 131 131 102
Width: 1600
VWidth: 1200
GlyphClass: 2
Flags: W
LayerCount: 2
Fore
SplineSet
800 200 m 1,0,-1
 800 400 l 1,1,-1
 1000 400 l 1,2,-1
 1000 800 l 1,3,-1
 400 800 l 1,4,-1
 400 400 l 1,5,-1
 600 400 l 1,6,-1
 600 200 l 1,7,-1
 800 200 l 1,0,-1
200 0 m 1,8,-1
 200 200 l 1,9,-1
 0 200 l 1,10,-1
 0 800 l 1,11,-1
 200 800 l 1,12,-1
 200 1000 l 1,13,-1
 1200 1000 l 1,14,-1
 1200 800 l 1,15,-1
 1400 800 l 1,16,-1
 1400 200 l 1,17,-1
 1200 200 l 1,18,-1
 1200 0 l 1,19,-1
 200 0 l 1,8,-1
EndSplineSet
EndChar

StartChar: uni0084
Encoding: 132 132 103
Width: 1600
VWidth: 1200
GlyphClass: 2
Flags: W
LayerCount: 2
Fore
SplineSet
0 0 m 1,0,-1
 0 200 l 1,1,-1
 200 200 l 1,2,-1
 200 0 l 1,3,-1
 0 0 l 1,0,-1
800 0 m 1,4,-1
 800 200 l 1,5,-1
 1000 200 l 1,6,-1
 1000 0 l 1,7,-1
 800 0 l 1,4,-1
400 200 m 1,8,-1
 400 400 l 1,9,-1
 600 400 l 1,10,-1
 600 200 l 1,11,-1
 400 200 l 1,8,-1
1200 200 m 1,12,-1
 1200 400 l 1,13,-1
 1400 400 l 1,14,-1
 1400 200 l 1,15,-1
 1200 200 l 1,12,-1
0 400 m 1,16,-1
 0 600 l 1,17,-1
 200 600 l 1,18,-1
 200 400 l 1,19,-1
 0 400 l 1,16,-1
800 400 m 1,20,-1
 800 600 l 1,21,-1
 1000 600 l 1,22,-1
 1000 400 l 1,23,-1
 800 400 l 1,20,-1
400 600 m 1,24,-1
 400 800 l 1,25,-1
 600 800 l 1,26,-1
 600 600 l 1,27,-1
 400 600 l 1,24,-1
1200 600 m 1,28,-1
 1200 800 l 1,29,-1
 1400 800 l 1,30,-1
 1400 600 l 1,31,-1
 1200 600 l 1,28,-1
0 800 m 1,32,-1
 0 1000 l 1,33,-1
 200 1000 l 1,34,-1
 200 800 l 1,35,-1
 0 800 l 1,32,-1
800 800 m 1,36,-1
 800 1000 l 1,37,-1
 1000 1000 l 1,38,-1
 1000 800 l 1,39,-1
 800 800 l 1,36,-1
EndSplineSet
EndChar

StartChar: uni0085
Encoding: 133 133 104
Width: 1600
VWidth: 1200
GlyphClass: 2
Flags: W
LayerCount: 2
Fore
SplineSet
800 0 m 1,0,-1
 800 200 l 1,1,-1
 200 200 l 1,2,-1
 200 400 l 1,3,-1
 400 400 l 1,4,-1
 400 1000 l 1,5,-1
 600 1000 l 1,6,-1
 600 800 l 1,7,-1
 1200 800 l 1,8,-1
 1200 600 l 1,9,-1
 1000 600 l 1,10,-1
 1000 0 l 1,11,-1
 800 0 l 1,0,-1
EndSplineSet
EndChar

StartChar: uni0086
Encoding: 134 134 105
Width: 1600
VWidth: 1200
GlyphClass: 2
Flags: W
LayerCount: 2
Fore
SplineSet
400 0 m 1,0,-1
 400 200 l 1,1,-1
 200 200 l 1,2,-1
 200 800 l 1,3,-1
 400 800 l 1,4,-1
 400 1000 l 1,5,-1
 1000 1000 l 1,6,-1
 1000 800 l 1,7,-1
 800 800 l 1,8,-1
 800 600 l 1,9,-1
 1000 600 l 1,10,-1
 1000 800 l 1,11,-1
 1200 800 l 1,12,-1
 1200 200 l 1,13,-1
 1000 200 l 1,14,-1
 1000 0 l 1,15,-1
 400 0 l 1,0,-1
EndSplineSet
EndChar

StartChar: uni0087
Encoding: 135 135 106
Width: 1600
VWidth: 1200
GlyphClass: 2
Flags: W
LayerCount: 2
Fore
SplineSet
600 0 m 1,0,-1
 600 200 l 1,1,-1
 400 200 l 1,2,-1
 400 400 l 1,3,-1
 200 400 l 1,4,-1
 200 1000 l 1,5,-1
 600 1000 l 1,6,-1
 600 800 l 1,7,-1
 800 800 l 1,8,-1
 800 1000 l 1,9,-1
 1200 1000 l 1,10,-1
 1200 400 l 1,11,-1
 1000 400 l 1,12,-1
 1000 200 l 1,13,-1
 800 200 l 1,14,-1
 800 0 l 1,15,-1
 600 0 l 1,0,-1
EndSplineSet
EndChar

StartChar: uni0088
Encoding: 136 136 107
Width: 1600
VWidth: 1200
GlyphClass: 2
Flags: W
LayerCount: 2
Fore
SplineSet
800 200 m 1,0,-1
 800 800 l 1,1,-1
 600 800 l 1,2,-1
 600 200 l 1,3,-1
 800 200 l 1,0,-1
400 0 m 1,4,-1
 400 200 l 1,5,-1
 200 200 l 1,6,-1
 200 400 l 1,7,-1
 0 400 l 1,8,-1
 0 600 l 1,9,-1
 200 600 l 1,10,-1
 200 800 l 1,11,-1
 400 800 l 1,12,-1
 400 1000 l 1,13,-1
 1000 1000 l 1,14,-1
 1000 800 l 1,15,-1
 1200 800 l 1,16,-1
 1200 600 l 1,17,-1
 1400 600 l 1,18,-1
 1400 400 l 1,19,-1
 1200 400 l 1,20,-1
 1200 200 l 1,21,-1
 1000 200 l 1,22,-1
 1000 0 l 1,23,-1
 400 0 l 1,4,-1
EndSplineSet
EndChar

StartChar: uni0089
Encoding: 137 137 108
Width: 1600
VWidth: 1200
GlyphClass: 2
Flags: W
LayerCount: 2
Fore
SplineSet
400 0 m 1,0,-1
 400 400 l 1,1,-1
 200 400 l 1,2,-1
 200 600 l 1,3,-1
 400 600 l 1,4,-1
 400 1000 l 1,5,-1
 1000 1000 l 1,6,-1
 1000 600 l 1,7,-1
 1200 600 l 1,8,-1
 1200 400 l 1,9,-1
 1000 400 l 1,10,-1
 1000 0 l 1,11,-1
 800 0 l 1,12,-1
 800 200 l 1,13,-1
 600 200 l 1,14,-1
 600 0 l 1,15,-1
 400 0 l 1,0,-1
EndSplineSet
EndChar

StartChar: uni008A
Encoding: 138 138 109
Width: 1600
VWidth: 1200
GlyphClass: 2
Flags: W
LayerCount: 2
Fore
SplineSet
1000 200 m 1,0,-1
 1000 400 l 1,1,-1
 800 400 l 1,2,-1
 800 200 l 1,3,-1
 1000 200 l 1,0,-1
200 0 m 1,4,-1
 200 400 l 1,5,-1
 0 400 l 1,6,-1
 0 600 l 1,7,-1
 200 600 l 1,8,-1
 200 800 l 1,9,-1
 400 800 l 1,10,-1
 400 1000 l 1,11,-1
 1000 1000 l 1,12,-1
 1000 800 l 1,13,-1
 1200 800 l 1,14,-1
 1200 600 l 1,15,-1
 1400 600 l 1,16,-1
 1400 400 l 1,17,-1
 1200 400 l 1,18,-1
 1200 0 l 1,19,-1
 600 0 l 1,20,-1
 600 400 l 1,21,-1
 400 400 l 1,22,-1
 400 0 l 1,23,-1
 200 0 l 1,4,-1
EndSplineSet
EndChar

StartChar: uni008B
Encoding: 139 139 110
Width: 1600
VWidth: 1200
GlyphClass: 2
Flags: W
LayerCount: 2
Fore
SplineSet
1000 200 m 1,0,-1
 1000 800 l 1,1,-1
 600 800 l 1,2,-1
 600 600 l 1,3,-1
 400 600 l 1,4,-1
 400 400 l 1,5,-1
 600 400 l 1,6,-1
 600 200 l 1,7,-1
 1000 200 l 1,0,-1
200 0 m 1,8,-1
 200 200 l 1,9,-1
 0 200 l 1,10,-1
 0 800 l 1,11,-1
 200 800 l 1,12,-1
 200 1000 l 1,13,-1
 1200 1000 l 1,14,-1
 1200 800 l 1,15,-1
 1400 800 l 1,16,-1
 1400 200 l 1,17,-1
 1200 200 l 1,18,-1
 1200 0 l 1,19,-1
 200 0 l 1,8,-1
EndSplineSet
EndChar

StartChar: uni008C
Encoding: 140 140 111
Width: 1600
VWidth: 1200
GlyphClass: 2
Flags: W
LayerCount: 2
Fore
SplineSet
1200 200 m 1,0,-1
 1200 400 l 1,1,-1
 200 400 l 1,2,-1
 200 200 l 1,3,-1
 1200 200 l 1,0,-1
400 600 m 1,4,-1
 400 800 l 1,5,-1
 200 800 l 1,6,-1
 200 600 l 1,7,-1
 400 600 l 1,4,-1
1200 600 m 1,8,-1
 1200 800 l 1,9,-1
 1000 800 l 1,10,-1
 1000 600 l 1,11,-1
 1200 600 l 1,8,-1
0 0 m 1,12,-1
 0 1000 l 1,13,-1
 1400 1000 l 1,14,-1
 1400 0 l 1,15,-1
 0 0 l 1,12,-1
EndSplineSet
EndChar

StartChar: uni008D
Encoding: 141 141 112
Width: 1600
VWidth: 1200
GlyphClass: 2
Flags: W
LayerCount: 2
Fore
SplineSet
200 0 m 1,0,-1
 200 400 l 1,1,-1
 600 400 l 1,2,-1
 600 1000 l 1,3,-1
 1200 1000 l 1,4,-1
 1200 800 l 1,5,-1
 800 800 l 1,6,-1
 800 0 l 1,7,-1
 200 0 l 1,0,-1
EndSplineSet
EndChar

StartChar: uni008E
Encoding: 142 142 113
Width: 1600
VWidth: 1200
GlyphClass: 2
Flags: W
LayerCount: 2
Fore
SplineSet
600 400 m 1,0,-1
 600 600 l 1,1,-1
 800 600 l 1,2,-1
 800 400 l 1,3,-1
 600 400 l 1,0,-1
1000 200 m 1,4,-1
 1000 800 l 1,5,-1
 400 800 l 1,6,-1
 400 200 l 1,7,-1
 1000 200 l 1,4,-1
200 0 m 1,8,-1
 200 200 l 1,9,-1
 0 200 l 1,10,-1
 0 800 l 1,11,-1
 200 800 l 1,12,-1
 200 1000 l 1,13,-1
 1200 1000 l 1,14,-1
 1200 800 l 1,15,-1
 1400 800 l 1,16,-1
 1400 200 l 1,17,-1
 1200 200 l 1,18,-1
 1200 0 l 1,19,-1
 200 0 l 1,8,-1
EndSplineSet
EndChar

StartChar: uni008F
Encoding: 143 143 114
Width: 1600
VWidth: 1200
GlyphClass: 2
Flags: W
LayerCount: 2
Fore
SplineSet
600 0 m 1,0,-1
 600 200 l 1,1,-1
 400 200 l 1,2,-1
 400 400 l 1,3,-1
 200 400 l 1,4,-1
 200 600 l 1,5,-1
 400 600 l 1,6,-1
 400 800 l 1,7,-1
 600 800 l 1,8,-1
 600 1000 l 1,9,-1
 800 1000 l 1,10,-1
 800 800 l 1,11,-1
 1000 800 l 1,12,-1
 1000 600 l 1,13,-1
 1200 600 l 1,14,-1
 1200 400 l 1,15,-1
 1000 400 l 1,16,-1
 1000 200 l 1,17,-1
 800 200 l 1,18,-1
 800 0 l 1,19,-1
 600 0 l 1,0,-1
EndSplineSet
EndChar

StartChar: uni0090
Encoding: 144 144 115
Width: 1600
VWidth: 1200
GlyphClass: 2
Flags: W
LayerCount: 2
Fore
SplineSet
0 400 m 1,0,-1
 0 600 l 1,1,-1
 200 600 l 1,2,-1
 200 400 l 1,3,-1
 0 400 l 1,0,-1
400 400 m 1,4,-1
 400 600 l 1,5,-1
 600 600 l 1,6,-1
 600 400 l 1,7,-1
 400 400 l 1,4,-1
800 400 m 1,8,-1
 800 600 l 1,9,-1
 1000 600 l 1,10,-1
 1000 400 l 1,11,-1
 800 400 l 1,8,-1
1200 400 m 1,12,-1
 1200 600 l 1,13,-1
 1400 600 l 1,14,-1
 1400 400 l 1,15,-1
 1200 400 l 1,12,-1
EndSplineSet
EndChar

StartChar: uni0091
Encoding: 145 145 116
Width: 1600
VWidth: 1200
GlyphClass: 2
Flags: W
LayerCount: 2
Fore
SplineSet
800 200 m 1,0,-1
 800 400 l 1,1,-1
 1000 400 l 1,2,-1
 1000 600 l 1,3,-1
 800 600 l 1,4,-1
 800 800 l 1,5,-1
 400 800 l 1,6,-1
 400 200 l 1,7,-1
 800 200 l 1,0,-1
200 0 m 1,8,-1
 200 200 l 1,9,-1
 0 200 l 1,10,-1
 0 800 l 1,11,-1
 200 800 l 1,12,-1
 200 1000 l 1,13,-1
 1200 1000 l 1,14,-1
 1200 800 l 1,15,-1
 1400 800 l 1,16,-1
 1400 200 l 1,17,-1
 1200 200 l 1,18,-1
 1200 0 l 1,19,-1
 200 0 l 1,8,-1
EndSplineSet
EndChar

StartChar: uni0092
Encoding: 146 146 117
Width: 1600
VWidth: 1200
GlyphClass: 2
Flags: W
LayerCount: 2
Fore
SplineSet
200 0 m 1,0,-1
 200 400 l 1,1,-1
 0 400 l 1,2,-1
 0 600 l 1,3,-1
 400 600 l 1,4,-1
 400 800 l 1,5,-1
 600 800 l 1,6,-1
 600 1000 l 1,7,-1
 800 1000 l 1,8,-1
 800 800 l 1,9,-1
 1000 800 l 1,10,-1
 1000 600 l 1,11,-1
 1400 600 l 1,12,-1
 1400 400 l 1,13,-1
 1200 400 l 1,14,-1
 1200 0 l 1,15,-1
 1000 0 l 1,16,-1
 1000 200 l 1,17,-1
 400 200 l 1,18,-1
 400 0 l 1,19,-1
 200 0 l 1,0,-1
EndSplineSet
EndChar

StartChar: uni0093
Encoding: 147 147 118
Width: 1600
VWidth: 1200
GlyphClass: 2
Flags: W
LayerCount: 2
Fore
SplineSet
200 0 m 1,0,-1
 200 200 l 1,1,-1
 400 200 l 1,2,-1
 400 400 l 1,3,-1
 600 400 l 1,4,-1
 600 600 l 1,5,-1
 400 600 l 1,6,-1
 400 800 l 1,7,-1
 200 800 l 1,8,-1
 200 1000 l 1,9,-1
 1200 1000 l 1,10,-1
 1200 800 l 1,11,-1
 1000 800 l 1,12,-1
 1000 600 l 1,13,-1
 800 600 l 1,14,-1
 800 400 l 1,15,-1
 1000 400 l 1,16,-1
 1000 200 l 1,17,-1
 1200 200 l 1,18,-1
 1200 0 l 1,19,-1
 200 0 l 1,0,-1
EndSplineSet
EndChar

StartChar: uni0094
Encoding: 148 148 119
Width: 1600
VWidth: 1200
GlyphClass: 2
Flags: W
LayerCount: 2
Fore
SplineSet
1000 200 m 1,0,-1
 1000 600 l 1,1,-1
 800 600 l 1,2,-1
 800 800 l 1,3,-1
 600 800 l 1,4,-1
 600 600 l 1,5,-1
 400 600 l 1,6,-1
 400 200 l 1,7,-1
 1000 200 l 1,0,-1
200 0 m 1,8,-1
 200 200 l 1,9,-1
 0 200 l 1,10,-1
 0 800 l 1,11,-1
 200 800 l 1,12,-1
 200 1000 l 1,13,-1
 1200 1000 l 1,14,-1
 1200 800 l 1,15,-1
 1400 800 l 1,16,-1
 1400 200 l 1,17,-1
 1200 200 l 1,18,-1
 1200 0 l 1,19,-1
 200 0 l 1,8,-1
EndSplineSet
EndChar

StartChar: uni0095
Encoding: 149 149 120
Width: 1600
VWidth: 1200
GlyphClass: 2
Flags: W
LayerCount: 2
Fore
SplineSet
1000 200 m 1,0,-1
 1000 400 l 1,1,-1
 1200 400 l 1,2,-1
 1200 200 l 1,3,-1
 1000 200 l 1,0,-1
200 400 m 1,4,-1
 200 600 l 1,5,-1
 400 600 l 1,6,-1
 400 400 l 1,7,-1
 200 400 l 1,4,-1
800 400 m 1,8,-1
 800 600 l 1,9,-1
 1000 600 l 1,10,-1
 1000 400 l 1,11,-1
 800 400 l 1,8,-1
1200 400 m 1,12,-1
 1200 600 l 1,13,-1
 1400 600 l 1,14,-1
 1400 400 l 1,15,-1
 1200 400 l 1,12,-1
0 600 m 1,16,-1
 0 800 l 1,17,-1
 200 800 l 1,18,-1
 200 600 l 1,19,-1
 0 600 l 1,16,-1
400 600 m 1,20,-1
 400 800 l 1,21,-1
 600 800 l 1,22,-1
 600 600 l 1,23,-1
 400 600 l 1,20,-1
EndSplineSet
EndChar

StartChar: uni0096
Encoding: 150 150 121
Width: 1600
VWidth: 1200
GlyphClass: 2
Flags: WO
LayerCount: 2
Fore
SplineSet
400 200 m 1,0,-1
 400 400 l 1,1,-1
 600 400 l 1,2,-1
 600 200 l 1,3,-1
 400 200 l 1,0,-1
1200 200 m 1,4,-1
 1200 400 l 1,5,-1
 1400 400 l 1,6,-1
 1400 200 l 1,7,-1
 1200 200 l 1,4,-1
200 400 m 1,8,-1
 200 600 l 1,9,-1
 400 600 l 1,10,-1
 400 400 l 1,11,-1
 200 400 l 1,8,-1
600 400 m 1,12,-1
 600 600 l 1,13,-1
 800 600 l 1,14,-1
 800 400 l 1,15,-1
 600 400 l 1,12,-1
1000 400 m 1,16,-1
 1000 600 l 1,17,-1
 1200 600 l 1,18,-1
 1200 400 l 1,19,-1
 1000 400 l 1,16,-1
0 600 m 1,20,-1
 0 800 l 1,21,-1
 200 800 l 1,22,-1
 200 600 l 1,23,-1
 0 600 l 1,20,-1
800 600 m 1,24,-1
 800 800 l 1,25,-1
 1000 800 l 1,26,-1
 1000 600 l 1,27,-1
 800 600 l 1,24,-1
EndSplineSet
EndChar

StartChar: uni0097
Encoding: 151 151 122
Width: 1600
VWidth: 1200
GlyphClass: 2
Flags: W
LayerCount: 2
Fore
SplineSet
1000 200 m 1,0,-1
 1000 400 l 1,1,-1
 800 400 l 1,2,-1
 800 600 l 1,3,-1
 1000 600 l 1,4,-1
 1000 800 l 1,5,-1
 800 800 l 1,6,-1
 800 600 l 1,7,-1
 600 600 l 1,8,-1
 600 800 l 1,9,-1
 400 800 l 1,10,-1
 400 600 l 1,11,-1
 600 600 l 1,12,-1
 600 400 l 1,13,-1
 400 400 l 1,14,-1
 400 200 l 1,15,-1
 600 200 l 1,16,-1
 600 400 l 1,17,-1
 800 400 l 1,18,-1
 800 200 l 1,19,-1
 1000 200 l 1,0,-1
200 0 m 1,20,-1
 200 200 l 1,21,-1
 0 200 l 1,22,-1
 0 800 l 1,23,-1
 200 800 l 1,24,-1
 200 1000 l 1,25,-1
 1200 1000 l 1,26,-1
 1200 800 l 1,27,-1
 1400 800 l 1,28,-1
 1400 200 l 1,29,-1
 1200 200 l 1,30,-1
 1200 0 l 1,31,-1
 200 0 l 1,20,-1
EndSplineSet
EndChar

StartChar: uni0098
Encoding: 152 152 123
Width: 1600
VWidth: 1200
GlyphClass: 2
Flags: W
LayerCount: 2
Fore
SplineSet
0 0 m 1,0,-1
 0 200 l 1,1,-1
 1400 200 l 1,2,-1
 1400 0 l 1,3,-1
 0 0 l 1,0,-1
0 400 m 1,4,-1
 0 600 l 1,5,-1
 1400 600 l 1,6,-1
 1400 400 l 1,7,-1
 0 400 l 1,4,-1
0 800 m 1,8,-1
 0 1000 l 1,9,-1
 1400 1000 l 1,10,-1
 1400 800 l 1,11,-1
 0 800 l 1,8,-1
EndSplineSet
EndChar

StartChar: uni0099
Encoding: 153 153 124
Width: 1600
VWidth: 1200
GlyphClass: 2
Flags: W
LayerCount: 2
Fore
SplineSet
0 0 m 1,0,-1
 0 1000 l 1,1,-1
 200 1000 l 1,2,-1
 200 0 l 1,3,-1
 0 0 l 1,0,-1
400 0 m 1,4,-1
 400 1000 l 1,5,-1
 600 1000 l 1,6,-1
 600 0 l 1,7,-1
 400 0 l 1,4,-1
800 0 m 1,8,-1
 800 1000 l 1,9,-1
 1000 1000 l 1,10,-1
 1000 0 l 1,11,-1
 800 0 l 1,8,-1
1200 0 m 1,12,-1
 1200 1000 l 1,13,-1
 1400 1000 l 1,14,-1
 1400 0 l 1,15,-1
 1200 0 l 1,12,-1
EndSplineSet
EndChar
